<?xml version="1.0" encoding="utf-8"?>
<!-- Generator: Adobe Illustrator 28.0.0, SVG Export Plug-In . SVG Version: 6.00 Build 0)  -->
<svg version="1.1" id="Layer_1" xmlns="http://www.w3.org/2000/svg" xmlns:xlink="http://www.w3.org/1999/xlink" x="0px" y="0px"
	 viewBox="0 0 100 100" style="enable-background:new 0 0 100 100;" xml:space="preserve">
<style type="text/css">
	.st0{fill:#3F6E34;}
	.st1{fill:#2F5528;}
</style>
<g>
	<g>
		<path class="st0" d="M32.5,99.32c-8.5-32.7-17.01-65.41-25.51-98.11c2.07,0,4.14,0,6.22,0c7.67,30.27,15.34,60.54,23.02,90.81
			c0.56-2.62,1.17-5.28,1.83-7.99c0.75-3.11,1.53-6.14,2.33-9.09l6.58-24.83h6.64l5.99,24.97c1.39,5.84,2.7,11.68,3.43,16.87
			C70.18,61.77,77.34,31.58,84.51,1.4c2.14-0.06,4.27-0.13,6.41-0.19c-8.26,32.7-16.51,65.41-24.77,98.11h-6.64L53.3,73.69
			c-1.53-6.28-2.56-11.09-3.21-16.06h-0.15c-0.87,4.89-1.97,9.71-3.8,16.06l-7.01,25.63H32.5z"/>
	</g>
	<g>
		<path class="st1" d="M46.74,50.36L30.67,1.15h6.87l7.66,24.24c2.12,6.64,3.94,12.63,5.26,18.4h0.15c1.39-5.7,3.43-11.9,5.62-18.33
			l8.32-24.31h6.79l-17.6,49.21H46.74z"/>
	</g>
</g>
</svg>
